<?xml version="1.0" standalone="no"?>
<!DOCTYPE svg PUBLIC "-//W3C//DTD SVG 20010904//EN"
 "http://www.w3.org/TR/2001/REC-SVG-20010904/DTD/svg10.dtd">
<svg version="1.0" xmlns="http://www.w3.org/2000/svg"
 width="896.000000pt" height="896.000000pt" viewBox="0 0 896.000000 896.000000"
 preserveAspectRatio="xMidYMid meet">
<metadata>
Created by potrace 1.11, written by Peter Selinger 2001-2013
</metadata>
<g transform="translate(0.000000,896.000000) scale(0.100000,-0.100000)"
fill="#000000" stroke="none">
<path d="M6694 8828 c-4 -7 -2 -8 4 -4 7 4 12 3 12 -2 0 -11 -80 -9 -99 3 -9
5 -12 4 -8 -2 4 -6 -17 -10 -54 -10 -34 0 -64 -5 -67 -10 -4 -6 -22 -10 -40
-9 -20 1 -31 -3 -28 -10 2 -6 -5 -10 -17 -9 -12 0 -26 -1 -32 -4 -5 -3 -14 -6
-20 -7 -5 0 -16 -2 -23 -2 -7 -1 -11 -6 -8 -11 3 -4 -5 -8 -17 -8 -28 0 -97
-30 -97 -43 0 -5 -7 -7 -15 -4 -8 4 -15 1 -15 -6 0 -14 -25 -40 -39 -40 -6 0
-11 -6 -11 -12 0 -9 -4 -8 -10 2 -8 13 -10 13 -10 -2 0 -9 -5 -20 -12 -24 -7
-5 -8 -3 -3 6 5 8 4 11 -3 6 -6 -3 -9 -16 -7 -27 4 -18 2 -19 -12 -7 -9 7 -14
8 -10 2 4 -7 0 -17 -8 -24 -8 -7 -15 -19 -15 -26 0 -8 -7 -14 -15 -14 -8 0
-15 -7 -15 -15 0 -9 -7 -18 -15 -21 -8 -4 -12 -11 -8 -17 4 -6 0 -8 -11 -4
-10 4 -15 3 -11 -3 4 -6 -7 -23 -23 -40 -16 -16 -32 -36 -35 -45 -4 -8 -11
-15 -16 -15 -6 0 -8 -7 -5 -15 5 -11 2 -13 -10 -9 -11 4 -16 1 -16 -10 0 -9
-7 -19 -15 -22 -8 -4 -12 -10 -9 -15 3 -5 -2 -9 -11 -9 -11 0 -15 -5 -11 -15
3 -8 0 -14 -6 -12 -7 1 -12 -4 -13 -11 0 -8 -8 -19 -17 -26 -10 -7 -15 -16
-11 -19 3 -4 -1 -7 -10 -7 -9 0 -17 -7 -17 -15 0 -8 -7 -15 -15 -15 -13 0 -20
-13 -13 -22 4 -6 -36 -47 -42 -43 -3 2 -6 -17 -7 -42 -1 -25 -6 -49 -10 -52
-8 -5 -13 -33 -16 -88 0 -6 -6 -9 -12 -7 -8 3 -11 -6 -10 -26 1 -18 -4 -38
-12 -46 -8 -8 -12 -18 -9 -23 4 -5 -1 -16 -9 -25 -8 -8 -16 -26 -17 -40 -2
-16 -6 -22 -13 -16 -7 6 -11 0 -13 -18 -1 -15 -8 -31 -15 -37 -8 -5 -12 -16
-10 -22 3 -7 -2 -16 -11 -19 -9 -3 -14 -10 -11 -14 3 -4 -2 -13 -10 -20 -8 -7
-15 -19 -15 -27 0 -8 -4 -11 -10 -8 -5 3 -12 -6 -16 -20 -3 -14 -12 -25 -20
-25 -8 0 -13 -6 -12 -12 2 -7 -3 -12 -11 -10 -8 2 -11 -3 -8 -12 3 -8 -1 -17
-9 -20 -8 -3 -14 -12 -14 -21 0 -8 -6 -15 -14 -15 -9 0 -12 -7 -9 -20 4 -16 2
-19 -11 -14 -13 5 -16 0 -16 -26 0 -18 -4 -29 -10 -25 -5 3 -11 -2 -12 -12 0
-10 -2 -22 -3 -28 -2 -5 -3 -14 -4 -20 -1 -5 -6 -3 -11 5 -8 12 -10 9 -10 -12
0 -37 -10 -59 -24 -51 -6 3 -8 3 -4 -2 4 -4 3 -16 -3 -26 -7 -14 -6 -19 3 -19
8 0 6 -5 -4 -11 -10 -5 -18 -18 -18 -29 0 -10 -5 -20 -11 -22 -6 -2 -11 -16
-11 -32 0 -15 -7 -30 -14 -33 -8 -3 -14 -14 -14 -25 0 -11 -6 -26 -14 -33 -7
-8 -12 -25 -11 -39 2 -18 -1 -23 -11 -19 -10 4 -14 -3 -14 -25 0 -17 -4 -32
-10 -34 -5 -1 -10 -18 -12 -35 -1 -18 -8 -35 -16 -38 -8 -3 -11 -12 -8 -20 3
-9 -1 -18 -9 -21 -8 -4 -12 -10 -9 -15 3 -5 1 -9 -5 -9 -6 0 -8 -7 -4 -15 3
-9 -2 -22 -12 -29 -12 -8 -16 -21 -12 -35 3 -11 1 -18 -4 -15 -10 5 -13 -2
-23 -49 -4 -15 -10 -26 -14 -23 -5 3 -8 -15 -7 -40 0 -25 -3 -48 -7 -50 -4 -3
-8 1 -8 8 0 7 -9 -6 -20 -30 -11 -24 -24 -41 -30 -37 -6 4 -9 1 -8 -6 5 -21
-19 -20 -25 2 -3 12 -10 18 -17 14 -6 -3 -10 -3 -9 2 4 23 -2 43 -13 41 -8 -2
-14 9 -16 25 -2 15 -8 25 -13 22 -8 -5 -14 16 -10 38 0 4 -5 6 -11 5 -7 -2
-12 3 -10 10 1 6 -3 12 -9 12 -6 0 -8 7 -5 16 3 8 2 13 -3 10 -4 -3 -9 9 -10
27 -1 18 -3 37 -3 44 -1 6 -8 8 -17 5 -14 -5 -14 -3 -3 10 9 12 10 18 2 23 -6
4 -9 13 -6 21 3 8 -1 14 -9 14 -10 0 -15 11 -15 35 0 21 -5 35 -12 35 -10 0
-9 3 1 9 7 5 9 10 3 12 -6 2 -12 18 -14 34 -1 17 -7 33 -12 37 -5 3 -10 15
-11 25 0 10 -4 24 -9 31 -4 6 -3 12 2 12 6 0 8 9 5 20 -3 11 -9 17 -14 14 -5
-3 -9 6 -9 20 0 18 -5 26 -17 26 -15 0 -16 2 -3 10 10 6 11 10 3 10 -7 0 -13
7 -13 15 0 8 -4 15 -10 15 -5 0 -10 11 -10 25 0 15 -5 24 -12 23 -7 -2 -13 6
-13 17 0 11 -9 25 -20 32 -11 7 -16 12 -12 13 5 0 1 7 -7 16 -9 8 -14 20 -10
25 3 5 -2 12 -10 15 -9 3 -16 15 -16 25 0 10 -4 19 -10 19 -5 0 -10 11 -10 25
0 14 -5 24 -12 23 -7 -2 -13 2 -13 7 -4 25 -18 44 -29 38 -6 -3 -8 -3 -4 2 4
4 1 20 -6 34 -8 14 -17 34 -20 44 -3 10 -10 16 -15 13 -4 -3 -8 4 -7 17 0 12
-4 21 -10 20 -6 -1 -11 8 -10 20 1 13 -4 21 -11 19 -11 -2 -18 17 -14 41 0 4
-6 7 -14 7 -8 0 -14 3 -14 8 4 23 -3 42 -15 42 -10 0 -12 7 -8 22 4 17 2 20
-13 15 -14 -6 -16 -3 -12 12 2 11 -3 24 -14 32 -10 7 -16 16 -13 21 3 4 -2 11
-10 14 -9 3 -16 12 -16 20 0 8 -4 14 -10 14 -5 0 -10 9 -10 21 0 11 -4 17 -10
14 -5 -3 -10 1 -10 10 0 9 -4 14 -9 10 -9 -5 -27 32 -23 48 1 4 -3 6 -10 5 -7
-2 -12 4 -13 12 -1 8 -6 14 -13 12 -10 -2 -17 17 -13 41 0 4 -6 7 -15 7 -8 0
-13 4 -10 9 3 5 -1 12 -10 15 -8 3 -13 10 -9 16 3 5 -3 17 -14 27 -11 9 -18
20 -15 25 3 4 -2 8 -10 8 -9 0 -16 9 -16 20 0 11 -7 20 -16 20 -8 0 -12 5 -9
10 3 6 1 10 -4 10 -6 0 -11 7 -11 15 0 8 -5 15 -11 15 -5 0 -7 5 -3 12 5 7 2
9 -8 5 -12 -4 -14 -1 -11 14 4 14 0 19 -13 19 -16 0 -17 2 -4 10 13 8 13 10
-2 10 -11 0 -15 5 -12 15 5 11 2 13 -10 9 -12 -5 -15 -2 -10 10 4 11 1 16 -11
16 -9 0 -14 4 -11 8 6 9 -29 42 -44 42 -6 0 -10 9 -10 21 0 11 -4 17 -10 14
-6 -3 -10 2 -10 11 0 10 -3 14 -7 11 -9 -10 -54 43 -47 55 4 7 2 8 -5 4 -6 -4
-14 0 -17 8 -3 9 -10 13 -15 10 -5 -3 -9 1 -9 9 0 8 -7 18 -16 21 -8 3 -12 10
-9 16 3 5 1 10 -5 10 -6 0 -26 16 -45 36 -18 19 -36 35 -39 35 -33 -4 -66 1
-61 9 3 6 -5 11 -19 11 -14 1 -30 3 -36 4 -5 1 -15 3 -21 4 -5 0 -8 5 -4 10 3
5 -9 9 -27 9 -17 -1 -34 4 -36 10 -2 7 -17 12 -32 12 -16 0 -31 4 -34 8 -10
17 -342 20 -358 4 -8 -8 -17 -8 -30 -1 -12 6 -18 6 -18 -1 0 -5 -5 -10 -11
-10 -5 0 -7 5 -4 10 3 6 1 10 -4 10 -6 0 -11 -4 -11 -10 0 -5 -5 -10 -11 -10
-5 0 -7 5 -3 12 5 7 3 8 -7 2 -24 -14 -51 -16 -43 -2 6 10 5 10 -7 1 -10 -8
-65 -11 -187 -10 -95 1 -172 -1 -172 -4 0 -3 -12 -5 -27 -4 -16 1 -32 -1 -38
-4 -15 -8 -36 -10 -31 -2 3 4 -4 7 -14 7 -10 0 -18 -5 -17 -11 1 -5 -6 -9 -15
-7 -11 2 -18 -3 -18 -13 0 -9 -5 -13 -10 -10 -6 3 -13 -1 -16 -9 -3 -9 -15
-16 -25 -16 -11 0 -19 -7 -19 -16 0 -8 -5 -12 -10 -9 -6 3 -13 -1 -16 -9 -3
-9 -13 -16 -21 -16 -8 0 -11 -5 -8 -10 4 -6 3 -10 -2 -9 -21 4 -43 -2 -40 -10
1 -5 -1 -8 -4 -8 -3 1 -17 -10 -31 -25 -14 -15 -28 -25 -31 -21 -4 3 -7 1 -7
-5 0 -7 -7 -12 -15 -12 -8 0 -15 -4 -15 -10 0 -5 -7 -10 -16 -10 -8 0 -12 -4
-9 -10 3 -5 2 -10 -3 -10 -5 0 -22 -12 -37 -27 -16 -16 -25 -22 -21 -15 13 22
-3 13 -39 -23 -19 -20 -35 -32 -35 -28 0 4 -7 0 -14 -10 -8 -10 -18 -19 -23
-20 -4 -1 -7 -6 -5 -10 1 -5 -2 -6 -7 -2 -6 3 -18 -3 -28 -15 -10 -11 -23 -20
-31 -20 -7 0 -10 -4 -7 -10 5 -9 -16 -15 -38 -11 -5 1 -6 -3 -2 -9 3 -5 1 -10
-5 -10 -6 0 -8 -5 -4 -12 4 -6 3 -8 -3 -5 -6 4 -19 -1 -29 -9 -10 -9 -14 -13
-7 -10 8 5 8 0 0 -18 -7 -13 -15 -22 -19 -20 -5 3 -9 0 -9 -5 -1 -6 -2 -17 -3
-23 -1 -7 -7 -12 -14 -11 -7 2 -11 0 -11 -5 4 -24 -3 -42 -16 -42 -10 0 -15
-7 -13 -17 2 -10 -3 -17 -9 -16 -8 2 -13 -7 -13 -22 0 -15 -6 -25 -14 -25 -10
0 -13 -7 -11 -21 3 -14 0 -19 -9 -16 -9 4 -13 -1 -11 -11 1 -9 -3 -20 -9 -24
-6 -4 -11 -11 -12 -15 -2 -20 -17 -42 -25 -37 -5 3 -9 -6 -9 -20 0 -16 -5 -25
-12 -23 -7 1 -12 -4 -11 -10 2 -7 -2 -13 -7 -13 -6 0 -10 -7 -10 -16 0 -9 -7
-22 -16 -28 -8 -6 -16 -20 -18 -30 -1 -9 -7 -21 -12 -24 -5 -4 -9 -14 -9 -22
0 -8 -6 -14 -12 -13 -8 2 -13 -7 -13 -21 0 -14 -5 -28 -12 -32 -7 -5 -8 -2 -3
7 5 8 4 11 -1 6 -5 -5 -9 -16 -9 -25 0 -9 -6 -16 -12 -15 -8 2 -13 -7 -13 -22
0 -14 -7 -28 -15 -31 -8 -4 -13 -10 -10 -14 3 -4 -2 -10 -10 -14 -8 -3 -15
-15 -15 -26 0 -12 -7 -20 -17 -21 -15 0 -15 -2 2 -9 18 -8 18 -9 2 -9 -10 -1
-15 -5 -12 -11 3 -5 -1 -10 -10 -10 -9 0 -15 -6 -14 -12 3 -25 -1 -39 -10 -34
-5 3 -12 -5 -15 -19 -4 -14 -11 -25 -17 -25 -6 0 -7 -5 -4 -10 3 -6 -1 -13 -9
-16 -9 -3 -16 -15 -16 -25 0 -11 -7 -22 -16 -26 -8 -3 -13 -12 -10 -20 3 -7
-1 -16 -9 -19 -8 -4 -15 -14 -15 -23 0 -9 -5 -23 -11 -31 -9 -13 -10 -12 -5 3
3 11 2 16 -4 12 -6 -3 -10 -15 -10 -26 0 -10 -5 -19 -12 -19 -6 0 -8 -3 -5 -6
4 -4 -3 -20 -14 -36 -12 -16 -18 -36 -15 -44 4 -11 2 -15 -7 -11 -8 3 -14 0
-14 -6 -1 -7 -2 -40 -3 -74 -2 -35 -7 -63 -11 -63 -5 0 -9 -5 -9 -11 0 -5 4
-7 10 -4 6 3 7 -1 4 -9 -3 -9 -9 -16 -14 -16 -4 0 -6 -21 -5 -47 1 -27 -4 -62
-12 -80 -8 -18 -15 -58 -16 -90 -1 -39 -6 -62 -17 -71 -13 -12 -13 -13 4 -8
16 6 17 4 5 -10 -7 -9 -14 -40 -14 -68 0 -38 -4 -50 -14 -48 -12 3 -12 0 -1
-12 8 -11 9 -16 1 -16 -7 0 -11 -24 -11 -65 0 -45 -4 -65 -12 -65 -9 0 -8 -4
2 -10 13 -9 13 -10 0 -10 -12 0 -15 -15 -14 -77 1 -97 2 -105 12 -99 4 2 9
-18 10 -46 1 -54 8 -70 21 -50 5 8 7 -8 7 -37 -1 -27 1 -48 5 -45 9 5 21 -44
14 -56 -3 -5 -1 -11 5 -15 6 -4 8 -10 5 -15 -3 -4 1 -10 8 -13 8 -3 13 -21 12
-46 -1 -23 3 -41 8 -41 4 0 6 -4 3 -9 -4 -5 -2 -11 4 -13 5 -1 10 -20 12 -40
1 -21 7 -38 13 -38 6 0 10 -17 9 -37 -1 -43 5 -61 16 -44 4 7 8 -12 9 -40 1
-29 7 -59 13 -66 6 -8 11 -27 10 -44 -1 -24 3 -29 15 -25 13 5 14 4 3 -9 -7
-8 -8 -15 -2 -15 5 0 10 -10 10 -22 0 -34 5 -51 21 -67 9 -10 10 -16 3 -19
-13 -4 -5 -30 17 -55 13 -16 13 -19 1 -27 -10 -7 -11 -10 -2 -10 6 0 12 -10
12 -23 0 -13 6 -29 13 -36 10 -11 9 -12 -3 -6 -12 7 -13 6 -3 -6 7 -8 13 -33
14 -56 2 -27 7 -39 15 -36 8 3 11 -6 10 -27 -1 -18 4 -38 11 -46 10 -9 14 -42
15 -103 1 -50 5 -88 10 -85 4 3 8 0 8 -5 0 -6 -6 -11 -12 -11 -9 0 -9 -3 1 -9
9 -6 16 -29 17 -63 3 -72 3 -70 16 -62 7 4 8 3 4 -4 -4 -7 -1 -12 6 -12 10 0
10 -2 -1 -9 -8 -5 -9 -11 -3 -15 6 -4 9 -15 7 -26 -2 -11 0 -20 5 -20 5 0 7
-7 4 -15 -4 -8 -2 -15 3 -15 5 0 9 -18 8 -41 -1 -22 3 -43 9 -46 5 -3 6 -1 2
5 -4 7 -2 12 3 12 6 0 11 -18 11 -39 0 -26 5 -41 16 -45 8 -3 12 -10 9 -16 -3
-5 -1 -10 6 -10 8 0 8 -4 -1 -16 -11 -12 -11 -15 -1 -12 8 2 15 -6 17 -16 1
-10 8 -22 14 -26 11 -7 17 -27 19 -58 1 -7 6 -10 13 -6 8 5 9 0 6 -14 -4 -15
-2 -22 8 -22 8 0 14 -10 14 -24 0 -13 7 -29 15 -36 8 -7 12 -16 10 -21 -3 -4
3 -12 12 -18 10 -6 15 -11 11 -11 -4 0 -2 -13 3 -30 6 -17 16 -27 22 -23 6 4
8 0 4 -10 -3 -8 1 -21 9 -27 8 -7 14 -25 14 -41 0 -22 4 -27 17 -22 12 5 15 2
10 -10 -3 -9 1 -23 9 -31 8 -9 15 -18 14 -21 -1 -26 2 -35 14 -35 7 0 13 -8
13 -17 0 -35 3 -44 13 -38 5 3 10 -3 10 -15 0 -12 7 -28 15 -37 8 -8 13 -19
10 -24 -4 -5 0 -9 7 -9 9 0 9 -3 -2 -10 -13 -8 -12 -10 3 -10 9 0 18 -4 18
-10 1 -5 3 -14 4 -20 1 -5 3 -15 4 -21 0 -5 5 -7 11 -4 5 3 7 0 4 -8 -3 -8 2
-21 10 -30 9 -9 16 -25 16 -37 0 -12 5 -18 10 -15 6 4 10 -7 10 -24 0 -21 5
-31 15 -31 8 0 15 -9 15 -20 0 -11 7 -23 15 -26 9 -4 14 -14 13 -23 -2 -9 3
-15 9 -13 8 1 13 -8 13 -23 0 -15 5 -24 12 -23 7 2 12 -5 10 -14 -2 -11 3 -18
13 -18 9 0 14 -4 10 -9 -3 -5 -1 -12 5 -16 6 -4 7 -11 4 -17 -5 -7 -1 -9 9 -5
9 3 16 3 15 -1 -2 -10 24 -65 39 -80 7 -8 11 -18 8 -23 -4 -5 1 -9 10 -9 9 0
13 -4 10 -10 -3 -5 -1 -10 5 -10 7 0 9 -7 6 -16 -3 -8 -2 -12 4 -9 9 6 14 -8
11 -27 0 -5 6 -8 15 -8 8 0 12 -4 9 -10 -3 -5 1 -10 11 -10 14 0 15 -2 3 -17
-7 -10 -10 -15 -5 -11 10 8 36 -14 29 -24 -2 -5 1 -8 7 -8 7 0 10 -7 7 -14 -4
-9 2 -17 14 -21 10 -4 17 -10 14 -15 -3 -5 1 -14 8 -22 7 -7 15 -17 16 -23 2
-5 7 -9 12 -7 5 1 9 -11 9 -28 0 -19 5 -29 13 -28 6 2 11 -5 9 -14 -2 -12 2
-16 13 -12 11 5 14 2 9 -9 -3 -10 2 -21 15 -29 12 -7 21 -21 21 -31 0 -20 22
-47 38 -47 6 0 8 -10 4 -22 -5 -21 -4 -22 12 -9 9 8 16 10 14 5 -6 -20 26 -72
41 -66 9 3 12 1 7 -6 -4 -8 2 -16 16 -21 13 -6 20 -10 16 -10 -4 -1 -1 -9 7
-18 8 -10 16 -22 17 -28 2 -14 25 -35 38 -35 6 0 8 -5 5 -10 -3 -6 1 -13 9
-16 9 -3 16 -13 16 -21 0 -8 5 -11 10 -8 6 3 10 -1 10 -9 0 -9 5 -16 11 -16 5
0 7 -5 4 -10 -4 -6 -1 -9 6 -8 7 2 18 -7 24 -19 5 -13 15 -23 22 -23 7 0 13
-9 13 -20 0 -13 5 -18 15 -14 11 5 13 2 8 -12 -5 -14 -3 -16 11 -11 9 4 15 3
11 -2 -3 -5 -1 -12 5 -16 6 -4 7 -11 4 -17 -5 -8 -1 -9 10 -5 9 4 15 3 12 -2
-3 -5 1 -14 9 -21 8 -7 12 -17 8 -23 -4 -6 0 -8 10 -4 11 4 17 1 17 -8 0 -8 5
-15 11 -15 5 0 7 -4 4 -10 -3 -5 -1 -10 4 -10 6 0 11 -7 11 -16 0 -14 2 -15
17 -3 12 10 15 10 9 1 -8 -13 27 -65 38 -55 3 3 6 -1 6 -10 0 -9 8 -17 18 -17
14 0 15 -2 2 -10 -13 -8 -13 -10 2 -10 9 0 20 -5 24 -12 5 -7 3 -8 -5 -3 -9 5
-9 1 1 -14 7 -12 18 -21 25 -21 7 0 13 -5 13 -11 0 -6 18 -27 39 -46 27 -23
38 -40 34 -51 -3 -9 -3 -14 1 -10 9 7 46 -27 46 -42 0 -5 5 -10 10 -10 6 0 10
-7 10 -16 0 -8 4 -13 9 -10 4 3 13 -6 20 -20 6 -14 15 -23 19 -20 4 2 14 -9
21 -25 7 -16 17 -27 22 -23 5 3 9 -2 9 -10 0 -9 8 -16 18 -16 14 0 15 -2 2
-10 -13 -9 -13 -10 0 -11 8 -1 19 -1 23 0 5 1 7 -4 4 -11 -2 -7 9 -25 24 -41
16 -15 29 -32 29 -39 0 -6 3 -9 6 -6 7 8 72 -55 67 -65 -2 -4 1 -7 7 -7 17 0
42 -29 35 -40 -4 -6 -3 -10 2 -9 20 3 34 -2 28 -11 -3 -5 1 -10 9 -10 14 0 20
-11 17 -32 0 -4 5 -5 12 -3 7 3 17 -5 22 -17 6 -13 16 -22 23 -21 6 2 14 -8
18 -22 4 -17 13 -25 28 -25 17 0 18 -2 6 -10 -13 -8 -12 -10 3 -10 9 0 17 -7
17 -16 0 -8 5 -12 10 -9 6 3 10 -1 10 -9 0 -9 9 -16 20 -16 13 0 18 -5 14 -15
-4 -10 0 -15 11 -15 9 0 13 -5 10 -10 -3 -6 1 -10 10 -10 9 0 13 -5 10 -10 -3
-5 -2 -10 4 -10 12 0 71 -58 71 -71 0 -5 6 -8 13 -7 6 2 11 -3 9 -9 -1 -7 5
-13 13 -13 8 0 15 -7 15 -15 0 -9 6 -12 17 -8 10 4 14 2 10 -4 -4 -6 4 -14 18
-17 14 -4 23 -11 20 -16 -3 -6 3 -10 14 -10 12 0 21 -7 21 -16 0 -8 4 -13 9
-10 5 3 11 -1 15 -9 3 -8 13 -15 22 -15 10 0 15 -3 11 -6 -8 -9 18 -34 36 -34
8 0 17 -7 21 -15 3 -8 11 -14 18 -13 7 2 12 -3 10 -10 -1 -6 5 -12 13 -12 8 0
15 -7 15 -16 0 -8 4 -13 9 -10 5 3 14 -1 21 -9 7 -8 21 -15 31 -15 11 0 19 -5
19 -11 0 -6 7 -17 15 -25 8 -9 15 -12 15 -8 0 4 11 -5 25 -20 14 -15 25 -24
25 -21 0 3 10 -3 22 -15 12 -11 28 -20 35 -20 8 0 11 -4 8 -10 -3 -5 1 -10 9
-10 9 0 16 -7 16 -16 0 -8 4 -13 9 -10 5 3 12 -1 15 -10 4 -9 9 -14 12 -11 4
3 15 -4 26 -16 11 -12 16 -15 13 -7 -4 8 6 0 23 -18 16 -17 35 -32 41 -32 7 0
9 -4 6 -10 -6 -9 17 -15 40 -10 6 1 7 -1 3 -5 -8 -9 14 -35 25 -28 4 2 7 -3 7
-11 0 -9 6 -15 13 -14 6 2 11 -3 9 -10 -1 -8 2 -11 8 -7 5 3 13 -1 16 -9 3 -9
10 -16 16 -16 5 0 16 -7 25 -15 8 -8 19 -13 24 -10 5 4 9 -1 9 -9 0 -9 6 -15
13 -14 6 2 11 -3 9 -9 -1 -7 3 -13 9 -13 7 0 18 -8 26 -17 8 -10 11 -12 7 -4
-5 9 -3 12 4 7 7 -4 12 -15 13 -24 0 -13 2 -13 6 -3 4 10 9 8 19 -10 7 -13 13
-18 14 -10 0 11 4 9 14 -4 8 -11 12 -23 10 -27 -3 -4 5 -5 16 -3 11 2 20 0 20
-6 0 -12 33 -43 51 -47 7 -2 17 -9 21 -15 4 -7 12 -6 24 4 16 12 17 12 9 -1
-5 -8 19 13 53 47 34 34 62 68 62 75 0 11 2 10 9 0 6 -11 10 -10 16 5 5 10 7
22 6 26 -1 5 3 6 9 2 5 -3 10 -1 10 5 0 6 5 8 10 5 6 -3 10 1 10 9 0 9 7 16
15 16 9 0 15 10 16 23 0 12 3 16 6 9 3 -8 35 18 84 68 43 44 79 77 79 75 0 -3
6 0 14 7 10 9 11 15 2 20 -10 7 5 13 27 9 4 0 7 6 7 15 0 8 5 12 10 9 6 -3 10
1 10 10 0 10 5 13 12 9 8 -5 9 -2 5 9 -3 9 -3 16 1 16 17 -3 46 3 36 7 -7 3 7
25 32 51 24 25 44 49 44 54 0 5 8 9 18 10 9 0 12 3 5 5 -7 3 -3 14 12 30 13
14 29 23 34 19 7 -3 8 0 5 9 -4 10 6 27 26 45 22 19 30 34 24 43 -6 9 -2 9 11
-2 10 -8 16 -10 12 -3 -4 7 0 16 10 22 11 6 13 11 5 11 -10 0 -10 3 2 15 8 8
19 15 25 15 6 0 11 5 11 10 0 6 11 21 25 34 13 13 22 25 20 28 -3 3 2 11 12
19 15 12 16 12 8 -1 -8 -13 -7 -13 8 -1 18 15 23 26 7 16 -5 -3 -10 -2 -10 3
0 5 11 15 25 22 14 7 25 18 25 23 0 5 11 20 25 33 14 13 25 30 25 39 0 9 4 14
9 10 5 -3 18 8 27 24 10 17 21 28 26 25 4 -3 8 4 8 16 0 12 4 18 11 15 6 -4
13 2 16 14 3 12 9 21 14 21 5 0 9 7 9 16 0 10 5 14 16 10 8 -3 12 -2 9 4 -3 6
1 13 10 16 9 4 14 12 11 19 -2 7 5 15 16 18 11 3 17 10 14 15 -3 6 1 12 9 16
8 3 15 13 15 22 0 11 5 14 16 10 10 -4 14 -1 12 6 -3 7 7 23 21 36 14 12 26
30 27 38 3 22 14 31 15 13 1 -8 4 -3 8 11 4 14 13 24 19 23 6 -2 9 8 6 23 -3
17 -1 23 6 19 7 -4 14 2 17 14 3 12 10 18 17 14 6 -4 5 1 -3 11 -8 9 -10 16
-4 14 6 -2 12 2 13 7 1 6 11 15 23 22 14 8 17 12 7 13 -10 0 -7 5 8 16 12 8
20 19 17 24 -3 4 2 10 10 14 8 3 15 15 15 27 0 14 5 19 14 16 9 -4 12 2 10 19
-1 13 2 22 7 18 5 -3 13 6 18 19 6 14 15 28 21 32 5 3 8 11 5 16 -4 5 1 9 9 9
9 0 15 3 15 8 -4 21 2 32 13 26 7 -5 9 -2 6 8 -4 8 2 21 13 29 10 7 19 21 19
29 0 9 9 26 20 38 11 11 29 39 41 61 12 23 23 41 26 41 2 0 1 -5 -3 -12 -4 -6
-3 -8 4 -4 6 3 9 15 7 26 -3 14 2 20 15 20 13 0 17 5 14 15 -4 8 -1 15 6 15 6
0 8 5 5 10 -3 5 -1 10 4 10 6 0 10 6 9 12 -2 7 3 12 10 10 10 -2 17 17 13 41
0 4 6 7 14 7 9 0 12 6 9 15 -4 8 1 17 10 21 9 3 16 12 16 19 0 7 7 15 15 19 9
3 12 12 8 22 -5 14 -3 16 11 11 14 -5 17 -3 12 8 -3 9 3 19 15 25 11 6 17 15
14 20 -3 4 2 15 11 24 8 9 16 24 17 35 1 12 6 17 16 13 9 -3 12 -1 7 6 -4 7
-1 15 8 18 8 3 12 12 9 20 -3 7 2 17 11 20 9 3 16 18 16 33 0 20 2 23 10 11 7
-12 11 -8 16 17 4 18 10 30 15 27 5 -3 9 2 9 11 0 8 7 18 15 21 8 4 15 14 15
24 0 11 5 22 10 25 6 4 8 11 5 16 -4 5 1 9 9 9 9 0 18 11 22 25 3 14 10 25 14
25 5 0 16 18 26 40 10 21 21 37 24 35 8 -5 30 39 30 60 0 8 7 15 16 15 8 0 13
4 9 9 -3 5 1 16 9 23 7 8 17 24 20 36 4 12 12 20 17 17 5 -4 9 1 9 10 0 9 7
23 15 32 8 8 13 19 10 24 -4 5 1 9 10 9 9 0 15 6 14 13 -4 29 2 48 12 42 6 -4
10 -1 8 6 -3 29 1 40 14 33 8 -5 8 -2 -2 9 -11 15 -11 17 2 17 10 0 14 8 12
25 -1 16 3 25 12 25 8 0 12 4 9 8 -3 5 4 21 15 38 10 16 19 39 19 51 0 12 4
23 9 25 5 2 11 14 13 28 1 14 9 31 16 39 7 7 11 19 8 26 -3 8 3 16 12 20 14 5
14 7 2 15 -10 7 -11 10 -2 10 6 0 12 7 12 16 0 8 4 12 10 9 6 -4 7 1 3 11 -4
12 -3 15 6 10 6 -4 11 -4 10 1 -4 24 2 53 11 48 9 -5 16 32 11 58 -1 5 3 6 9
2 5 -3 11 1 11 9 1 9 3 21 4 26 1 6 3 15 4 21 0 5 6 7 11 4 6 -3 11 1 11 9 2
25 4 30 13 45 7 11 6 12 -5 6 -9 -5 -8 -1 3 11 16 19 18 23 18 45 0 5 5 7 10
4 6 -4 10 7 10 25 0 17 4 29 8 26 7 -4 11 9 14 51 1 7 5 10 10 7 4 -3 11 8 14
25 4 17 13 31 20 31 8 0 11 6 8 15 -3 8 1 29 10 46 9 18 16 38 16 45 0 7 4 14
10 16 5 2 11 15 12 31 1 15 6 27 10 27 4 0 8 7 8 15 0 8 6 15 13 15 8 0 7 4
-3 10 -12 8 -11 11 8 16 14 4 19 10 13 14 -15 9 -2 42 13 33 6 -3 8 -3 4 2 -4
4 -3 14 3 21 6 8 9 21 5 29 -3 8 0 15 7 15 11 0 16 19 20 67 0 7 4 10 9 7 5
-3 5 -10 2 -16 -4 -6 -2 -8 4 -5 5 4 9 19 7 33 -1 14 3 28 10 30 7 3 12 17 13
32 0 43 1 45 16 33 11 -9 13 -6 10 19 -2 16 1 30 7 30 6 0 7 5 4 10 -3 6 -1
10 4 10 6 0 11 8 11 18 0 9 7 25 15 35 7 11 12 27 10 38 -3 12 2 19 12 19 13
0 14 2 2 17 -10 11 -10 14 -1 9 8 -5 12 1 12 19 0 14 4 24 8 21 4 -2 9 3 10
12 4 38 9 54 18 60 6 4 11 17 11 30 1 13 8 31 15 39 7 9 12 24 10 33 -2 10 4
20 13 24 9 3 16 16 15 28 -3 39 -1 48 14 42 10 -4 13 3 11 26 -1 16 2 33 8 37
6 4 7 1 2 -8 -5 -8 -4 -11 1 -6 5 5 10 17 10 28 3 45 4 50 12 45 7 -4 12 17
15 61 0 7 4 10 9 7 8 -5 9 2 13 51 1 11 7 19 13 18 7 -2 12 6 12 16 0 11 5 23
10 26 8 5 7 12 -2 23 -11 13 -11 14 1 7 11 -6 13 -4 8 8 -3 10 -3 17 1 17 4 0
7 37 6 83 0 54 4 87 13 98 8 10 14 44 14 90 1 42 6 77 12 81 6 3 11 40 12 82
1 42 5 79 8 83 4 3 3 11 -3 17 -5 7 -5 17 2 26 8 12 9 12 4 -3 -3 -10 -2 -16
3 -13 5 3 8 31 7 62 -1 30 2 58 6 60 4 3 4 13 -2 24 -7 14 -6 20 7 24 12 5 13
10 5 18 -8 8 -7 14 1 23 8 7 12 51 12 126 0 64 4 117 10 121 6 5 4 8 -5 9 -10
0 -8 3 5 9 19 8 19 9 1 9 -17 1 -17 2 -1 27 13 20 14 28 4 40 -6 8 -7 14 -2
14 6 0 11 66 12 167 1 105 6 172 13 181 9 10 8 12 -1 10 -9 -2 -12 20 -13 82
0 47 -6 91 -12 99 -8 11 -8 13 2 7 6 -4 12 -2 12 3 0 6 -4 11 -8 11 -11 0 -12
7 -15 109 -1 58 -6 86 -15 89 -10 3 -10 7 0 20 10 12 10 14 1 8 -7 -4 -13 -4
-14 1 0 4 -1 36 -1 71 -1 35 -6 66 -11 69 -6 4 -7 1 -2 -7 5 -9 4 -11 -4 -6
-9 6 -9 11 0 22 6 8 7 14 2 14 -5 0 -8 17 -7 38 1 20 -3 43 -10 51 -8 11 -8
13 1 7 9 -5 11 -2 7 8 -3 9 -10 13 -15 10 -5 -3 -9 27 -9 66 0 49 -3 69 -11
64 -7 -4 -7 1 1 16 7 12 8 20 2 16 -14 -8 -19 11 -18 66 1 32 -3 49 -13 53
-10 4 -11 8 -2 19 9 10 9 16 1 21 -6 4 -9 12 -7 18 2 7 -3 21 -12 31 -13 16
-13 18 -1 12 13 -6 13 -6 0 6 -9 7 -15 28 -15 45 0 18 -6 35 -12 38 -7 2 -13
17 -13 33 0 15 -4 32 -10 38 -5 5 -10 24 -12 42 -1 17 -6 32 -11 32 -5 0 -4 7
3 16 11 12 11 15 -1 12 -10 -2 -13 5 -11 24 1 14 -2 29 -8 33 -6 3 -8 11 -5
16 4 5 0 9 -8 9 -9 0 -13 11 -11 35 2 20 -3 40 -11 49 -8 8 -15 26 -15 40 0
15 -5 36 -12 49 -6 12 -14 29 -18 37 -4 8 -20 19 -36 25 -16 5 -34 14 -41 20
-28 23 -39 31 -65 44 -16 8 -28 18 -28 23 0 4 -9 8 -20 8 -11 0 -20 7 -20 15
0 8 -3 14 -7 14 -23 -4 -43 2 -38 11 3 6 -3 10 -14 10 -12 0 -21 6 -21 14 0 9
-7 13 -20 11 -11 -2 -23 1 -26 7 -5 7 -2 8 7 3 11 -6 11 -5 3 4 -7 7 -37 12
-70 12 -32 0 -52 4 -46 8 7 4 -25 8 -70 10 -97 2 -108 4 -127 15 -9 6 -12 5
-7 -2 7 -12 -20 -10 -31 3 -4 4 -2 5 6 0 8 -5 12 -4 8 1 -3 5 -43 9 -89 9 -45
0 -85 3 -88 7 -3 4 -17 9 -32 12 -22 4 -26 1 -22 -12 5 -15 4 -15 -6 1 -13 21
-118 24 -139 5 -11 -10 -13 -10 -7 0 5 7 1 12 -9 12 -10 0 -13 -5 -9 -12 4 -7
3 -8 -4 -4 -21 13 -51 15 -58 4z"/>
<path d="M8037 5613 c-10 -9 -9 -23 1 -23 5 0 9 7 9 15 0 17 -1 18 -10 8z"/>
<path d="M1010 5180 c0 -5 5 -10 11 -10 5 0 7 5 4 10 -3 6 -8 10 -11 10 -2 0
-4 -4 -4 -10z"/>
<path d="M2816 1817 c3 -10 9 -15 12 -12 3 3 0 11 -7 18 -10 9 -11 8 -5 -6z"/>
</g>
</svg>
